<svg version="1.1" id="Layer_1" xmlns="http://www.w3.org/2000/svg" xmlns:xlink="http://www.w3.org/1999/xlink" x="0px" y="0px"
	 width="100%" viewBox="0 0 528 532" enable-background="new 0 0 528 532" xml:space="preserve">
<path fill="none" opacity="1.000000" stroke="none"
	d="
M359.000000,533.000000 
	C239.361420,533.000000 120.222839,533.000000 1.042127,533.000000 
	C1.042127,355.736542 1.042127,178.473099 1.042127,1.104817 
	C176.888596,1.104817 352.777283,1.104817 528.833008,1.104817 
	C528.833008,178.333206 528.833008,355.666595 528.833008,533.000000 
	C472.473053,533.000000 415.986542,533.000000 359.000000,533.000000 
M157.196320,189.130905 
	C156.824753,191.089478 156.453186,193.048065 155.253433,195.108124 
	C140.611191,197.882416 126.707893,202.844193 113.754967,210.135361 
	C98.621254,218.654099 85.547638,229.454803 77.159836,245.176910 
	C68.223442,261.927307 64.671898,279.906738 65.520592,298.620819 
	C67.317719,338.248077 85.803810,367.927277 120.657959,386.843018 
	C142.870987,398.898254 166.904129,400.148865 191.021896,394.621643 
	C204.699646,391.487000 217.828125,385.955627 231.443176,382.163177 
	C239.596649,387.471283 247.295334,393.734131 256.001740,397.881500 
	C272.298431,405.644501 288.833954,405.345062 304.427368,395.276154 
	C316.820557,387.273804 324.737091,375.466248 331.356476,362.650543 
	C331.589111,362.200165 331.305817,361.483307 331.223633,360.346222 
	C329.570312,361.432556 328.316864,362.179382 327.144989,363.037628 
	C306.014740,378.512604 282.464447,386.336304 256.217194,384.418823 
	C248.948959,383.887848 241.833420,381.267029 235.370575,379.092438 
	C276.962585,357.579742 307.153015,324.456207 331.009521,284.070587 
	C336.135101,290.423615 340.742249,296.134064 346.244568,302.954102 
	C353.196838,277.648926 359.718903,253.909531 366.240997,230.170135 
	C365.728851,229.932739 365.216705,229.695343 364.704559,229.457947 
	C345.126282,241.782913 325.547974,254.107880 305.024506,267.027863 
	C312.122681,271.084625 317.950287,274.415222 324.230713,278.004608 
	C322.453583,280.408691 321.218506,282.354187 319.718323,284.067474 
	C299.866730,306.739288 277.677277,326.674011 251.779678,342.319427 
	C234.524963,352.743469 216.135376,360.292511 196.298904,363.837311 
	C180.563217,366.649323 164.769882,365.820435 149.288071,361.824127 
	C136.002197,358.394684 124.230553,352.301239 115.149475,341.497894 
	C101.123878,324.812286 97.207718,305.617767 100.007950,284.520325 
	C103.122551,261.054352 115.719757,244.476334 137.149673,235.101791 
	C146.647324,230.947021 156.973587,228.686478 167.463257,226.224213 
	C173.084076,231.988983 178.349747,238.210999 186.835419,241.914047 
	C184.462280,232.788361 182.365173,224.724136 180.364883,215.804901 
	C180.335464,212.653152 180.306030,209.501404 180.820648,205.892395 
	C181.296066,204.135971 181.988419,202.406647 182.211578,200.618729 
	C183.631622,189.241516 188.860809,179.702744 196.909683,171.875565 
	C217.089828,152.251175 242.313828,144.218292 269.572144,144.013077 
	C294.006714,143.829117 315.983521,153.044098 335.402313,168.003418 
	C338.776581,170.602798 342.266327,173.052231 345.702759,175.570923 
	C344.883057,172.178314 343.633759,169.322754 341.591949,167.246490 
	C333.362244,158.877853 325.479523,150.012161 316.367126,142.703369 
	C302.183136,131.326752 285.290863,125.331108 267.279419,123.803604 
	C242.446228,121.697563 218.535645,125.609573 196.362091,137.757065 
	C181.573273,145.858902 169.334824,156.586777 162.105179,172.079849 
	C159.945496,176.708054 159.249695,182.019348 157.735672,187.556030 
	C157.736404,187.926682 157.737122,188.297333 157.196320,189.130905 
M443.233826,217.354111 
	C425.957855,205.528305 407.273804,201.039612 386.599274,206.550064 
	C388.707916,207.923187 391.004669,208.706177 393.244995,209.626572 
	C395.547729,210.572586 397.832855,211.577362 400.061432,212.685623 
	C430.432434,227.788681 447.591278,252.085144 449.592346,286.074219 
	C451.252869,314.279510 440.799683,337.852570 418.044067,354.682007 
	C396.214020,370.826874 371.645355,373.371155 345.921021,365.049164 
	C341.932159,363.758728 338.034912,362.185272 332.845703,360.285187 
	C333.989471,362.125519 334.348114,362.805481 334.800751,363.415710 
	C343.808319,375.558716 355.518463,384.010529 369.900299,388.593170 
	C408.754028,400.973663 447.981110,382.909698 468.600403,348.206757 
	C481.771881,326.038727 485.785400,302.017273 480.908142,276.580200 
	C476.217163,252.114594 464.082336,232.384384 443.233826,217.354111 
z"/>
<path fill="#A631F9" opacity="1.000000" stroke="none" 
	d="
M231.203979,381.503693 
	C217.828125,385.955627 204.699646,391.487000 191.021896,394.621643 
	C166.904129,400.148865 142.870987,398.898254 120.657959,386.843018 
	C85.803810,367.927277 67.317719,338.248077 65.520592,298.620819 
	C64.671898,279.906738 68.223442,261.927307 77.159836,245.176910 
	C85.547638,229.454803 98.621254,218.654099 113.754967,210.135361 
	C126.707893,202.844193 140.611191,197.882416 155.942047,195.102615 
	C156.815994,195.108871 157.001328,195.120651 157.124832,195.558716 
	C157.316833,206.419113 160.285706,215.902496 166.889404,224.292450 
	C166.887070,224.841415 166.905396,225.203735 166.923721,225.566071 
	C156.973587,228.686478 146.647324,230.947021 137.149673,235.101791 
	C115.719757,244.476334 103.122551,261.054352 100.007950,284.520325 
	C97.207718,305.617767 101.123878,324.812286 115.149475,341.497894 
	C124.230553,352.301239 136.002197,358.394684 149.288071,361.824127 
	C164.769882,365.820435 180.563217,366.649323 196.298904,363.837311 
	C216.135376,360.292511 234.524963,352.743469 251.779678,342.319427 
	C277.677277,326.674011 299.866730,306.739288 319.718323,284.067474 
	C321.218506,282.354187 322.453583,280.408691 324.230713,278.004608 
	C317.950287,274.415222 312.122681,271.084625 305.024506,267.027863 
	C325.547974,254.107880 345.126282,241.782913 364.704559,229.457947 
	C365.216705,229.695343 365.728851,229.932739 366.240997,230.170135 
	C359.718903,253.909531 353.196838,277.648926 346.244568,302.954102 
	C340.742249,296.134064 336.135101,290.423615 331.009521,284.070587 
	C307.153015,324.456207 276.962585,357.579742 234.894592,379.453308 
	C233.347061,380.377380 232.275528,380.940521 231.203979,381.503693 
z"/>
<path fill="#FFBB08" opacity="1.000000" stroke="none" 
	d="
M443.536438,217.546753 
	C464.082336,232.384384 476.217163,252.114594 480.908142,276.580200 
	C485.785400,302.017273 481.771881,326.038727 468.600403,348.206757 
	C447.981110,382.909698 408.754028,400.973663 369.900299,388.593170 
	C355.518463,384.010529 343.808319,375.558716 334.800751,363.415710 
	C334.348114,362.805481 333.989471,362.125519 332.845703,360.285187 
	C338.034912,362.185272 341.932159,363.758728 345.921021,365.049164 
	C371.645355,373.371155 396.214020,370.826874 418.044067,354.682007 
	C440.799683,337.852570 451.252869,314.279510 449.592346,286.074219 
	C447.591278,252.085144 430.432434,227.788681 400.061432,212.685623 
	C397.832855,211.577362 395.547729,210.572586 393.244995,209.626572 
	C391.004669,208.706177 388.707916,207.923187 386.599274,206.550064 
	C407.273804,201.039612 425.957855,205.528305 443.536438,217.546753 
z"/>
<path fill="#FF026E" opacity="1.000000" stroke="none" 
	d="
M166.910065,224.105835 
	C160.285706,215.902496 157.316833,206.419113 157.382416,195.239746 
	C157.713821,192.552307 157.725845,190.610138 157.737854,188.667984 
	C157.737122,188.297333 157.736404,187.926682 158.142426,187.105850 
	C159.125381,184.650787 159.577972,182.600311 160.297577,180.648285 
	C165.623489,166.201172 174.544647,154.453445 187.294647,145.820877 
	C211.724792,129.280136 238.788483,123.144234 268.001923,126.050621 
	C279.098267,127.154572 289.966949,129.675354 299.680359,135.145248 
	C308.708801,140.229370 317.329010,146.142105 325.651489,152.332016 
	C329.769409,155.394760 332.812653,159.902512 336.342133,163.756470 
	C335.950409,164.125977 335.558685,164.495468 335.166962,164.864960 
	C329.818451,161.617249 324.572815,158.183228 319.099823,155.160950 
	C307.995056,149.028717 296.094604,144.749908 283.550995,143.248138 
	C274.049713,142.110580 264.184052,141.378143 254.792526,142.693298 
	C245.116928,144.048264 235.727753,147.834045 226.377136,151.034988 
	C211.955765,155.971756 199.402298,163.914505 190.336472,176.399765 
	C183.922058,185.233551 179.084045,194.843384 180.276611,206.349655 
	C180.306030,209.501404 180.335464,212.653152 180.185791,216.696243 
	C180.781952,223.926163 181.557190,230.264740 182.496292,237.943054 
	C178.111115,233.846893 174.591721,230.498138 170.995804,227.233658 
	C169.730316,226.084824 168.277390,225.142471 166.910065,224.105835 
z"/>
<path fill="#FF4795" opacity="1.000000" stroke="none" 
	d="
M180.548630,206.121033 
	C179.084045,194.843384 183.922058,185.233551 190.336472,176.399765 
	C199.402298,163.914505 211.955765,155.971756 226.377136,151.034988 
	C235.727753,147.834045 245.116928,144.048264 254.792526,142.693298 
	C264.184052,141.378143 274.049713,142.110580 283.550995,143.248138 
	C296.094604,144.749908 307.995056,149.028717 319.099823,155.160950 
	C324.572815,158.183228 329.818451,161.617249 335.166962,164.864960 
	C335.558685,164.495468 335.950409,164.125977 336.342133,163.756470 
	C332.812653,159.902512 329.769409,155.394760 325.651489,152.332016 
	C317.329010,146.142105 308.708801,140.229370 299.680359,135.145248 
	C289.966949,129.675354 279.098267,127.154572 268.001923,126.050621 
	C238.788483,123.144234 211.724792,129.280136 187.294647,145.820877 
	C174.544647,154.453445 165.623489,166.201172 160.297577,180.648285 
	C159.577972,182.600311 159.125381,184.650787 158.216187,186.836670 
	C159.249695,182.019348 159.945496,176.708054 162.105179,172.079849 
	C169.334824,156.586777 181.573273,145.858902 196.362091,137.757065 
	C218.535645,125.609573 242.446228,121.697563 267.279419,123.803604 
	C285.290863,125.331108 302.183136,131.326752 316.367126,142.703369 
	C325.479523,150.012161 333.362244,158.877853 341.591949,167.246490 
	C343.633759,169.322754 344.883057,172.178314 345.702759,175.570923 
	C342.266327,173.052231 338.776581,170.602798 335.402313,168.003418 
	C315.983521,153.044098 294.006714,143.829117 269.572144,144.013077 
	C242.313828,144.218292 217.089828,152.251175 196.909683,171.875565 
	C188.860809,179.702744 183.631622,189.241516 182.211578,200.618729 
	C181.988419,202.406647 181.296066,204.135971 180.548630,206.121033 
z"/>
<path fill="#4AAAFF" opacity="1.000000" stroke="none" 
	d="
M231.323578,381.833435 
	C232.275528,380.940521 233.347061,380.377380 234.533203,379.709625 
	C241.833420,381.267029 248.948959,383.887848 256.217194,384.418823 
	C282.464447,386.336304 306.014740,378.512604 327.144989,363.037628 
	C328.316864,362.179382 329.570312,361.432556 331.223633,360.346222 
	C331.305817,361.483307 331.589111,362.200165 331.356476,362.650543 
	C324.737091,375.466248 316.820557,387.273804 304.427368,395.276154 
	C288.833954,405.345062 272.298431,405.644501 256.001740,397.881500 
	C247.295334,393.734131 239.596649,387.471283 231.323578,381.833435 
M312.739563,386.248474 
	C317.908020,380.623230 323.016266,374.957123 325.671783,367.295319 
	C298.682343,384.364410 269.870300,391.149292 238.311707,384.230347 
	C257.181213,402.124237 289.069611,409.657379 312.739563,386.248474 
z"/>
<path fill="#FF4795" opacity="1.000000" stroke="none" 
	d="
M166.889404,224.292450 
	C168.277390,225.142471 169.730316,226.084824 170.995804,227.233658 
	C174.591721,230.498138 178.111115,233.846893 182.496292,237.943054 
	C181.557190,230.264740 180.781952,223.926163 180.137390,217.123749 
	C182.365173,224.724136 184.462280,232.788361 186.835419,241.914047 
	C178.349747,238.210999 173.084076,231.988983 167.193481,225.895142 
	C166.905396,225.203735 166.887070,224.841415 166.889404,224.292450 
z"/>
<path fill="#FF4795" opacity="1.000000" stroke="none" 
	d="
M157.467087,188.899445 
	C157.725845,190.610138 157.713821,192.552307 157.444229,194.813446 
	C157.001328,195.120651 156.815994,195.108871 156.356140,195.051880 
	C156.453186,193.048065 156.824753,191.089478 157.467087,188.899445 
z"/>
<path fill="#058AFF" opacity="1.000000" stroke="none" 
	d="
M312.487091,386.492493 
	C289.069611,409.657379 257.181213,402.124237 238.311707,384.230347 
	C269.870300,391.149292 298.682343,384.364410 325.671783,367.295319 
	C323.016266,374.957123 317.908020,380.623230 312.487091,386.492493 
z"/>
</svg>