<svg width="17" height="17" viewBox="0 0 17 17" fill="none" xmlns="http://www.w3.org/2000/svg">
<path d="M15.037 7.19474H14.5V7.16707H8.50004V9.83374H12.2677C11.718 11.3861 10.241 12.5004 8.50004 12.5004C6.29104 12.5004 4.50004 10.7094 4.50004 8.50041C4.50004 6.29141 6.29104 4.50041 8.50004 4.50041C9.51971 4.50041 10.4474 4.88507 11.1537 5.51341L13.0394 3.62774C11.8487 2.51807 10.256 1.83374 8.50004 1.83374C4.81837 1.83374 1.83337 4.81874 1.83337 8.50041C1.83337 12.1821 4.81837 15.1671 8.50004 15.1671C12.1817 15.1671 15.1667 12.1821 15.1667 8.50041C15.1667 8.05341 15.1207 7.61707 15.037 7.19474Z" fill="#FFC107"/>
<path d="M2.60217 5.39741L4.79251 7.00374C5.38517 5.53641 6.82051 4.50041 8.50017 4.50041C9.51984 4.50041 10.4475 4.88507 11.1538 5.51341L13.0395 3.62774C11.8488 2.51807 10.2562 1.83374 8.50017 1.83374C5.93951 1.83374 3.71884 3.27941 2.60217 5.39741Z" fill="#FF3D00"/>
<path d="M8.49982 15.1665C10.2218 15.1665 11.7865 14.5075 12.9695 13.4359L10.9062 11.6899C10.2143 12.216 9.36897 12.5006 8.49982 12.4999C6.76582 12.4999 5.29349 11.3942 4.73882 9.8512L2.56482 11.5262C3.66815 13.6852 5.90882 15.1665 8.49982 15.1665Z" fill="#4CAF50"/>
<path d="M15.037 7.19466H14.5V7.16699H8.5V9.83366H12.2677C12.0047 10.5725 11.5311 11.2181 10.9053 11.6907L10.9063 11.69L12.9697 13.436C12.8237 13.5687 15.1667 11.8337 15.1667 8.50033C15.1667 8.05333 15.1207 7.61699 15.037 7.19466Z" fill="#1976D2"/>
</svg>
