<svg width="124" height="124" viewBox="0 0 124 124" fill="none" xmlns="http://www.w3.org/2000/svg">
<g clip-path="url(#clip0_83_823)">
<path d="M0 62C0 27.7583 27.7583 0 62 0V0C96.2417 0 124 27.7583 124 62V62C124 96.2417 96.2417 124 62 124V124C27.7583 124 0 96.2417 0 62V62Z" fill="#F2F2F2"/>
<path fill-rule="evenodd" clip-rule="evenodd" d="M110.222 131.75V119.694C110.222 106.378 99.4273 95.5833 86.1111 95.5833H37.8889C24.5727 95.5833 13.7778 106.378 13.7778 119.694V131.75" fill="#333333"/>
<path d="M110.222 131.75V119.694C110.222 106.378 99.4273 95.5833 86.1111 95.5833H37.8889C24.5727 95.5833 13.7778 106.378 13.7778 119.694V131.75" stroke="#333333" stroke-width="2" stroke-linecap="round" stroke-linejoin="round"/>
<path fill-rule="evenodd" clip-rule="evenodd" d="M62 71.4722C75.3162 71.4722 86.1111 60.6773 86.1111 47.3611C86.1111 34.0449 75.3162 23.25 62 23.25C48.6838 23.25 37.8889 34.0449 37.8889 47.3611C37.8889 60.6773 48.6838 71.4722 62 71.4722Z" fill="#333333" stroke="#333333" stroke-width="2" stroke-linecap="round" stroke-linejoin="round"/>
</g>
<path d="M62 123.5C28.0345 123.5 0.5 95.9655 0.5 62H-0.5C-0.5 96.5178 27.4822 124.5 62 124.5V123.5ZM123.5 62C123.5 95.9655 95.9655 123.5 62 123.5V124.5C96.5178 124.5 124.5 96.5178 124.5 62H123.5ZM62 0.5C95.9655 0.5 123.5 28.0345 123.5 62H124.5C124.5 27.4822 96.5178 -0.5 62 -0.5V0.5ZM62 -0.5C27.4822 -0.5 -0.5 27.4822 -0.5 62H0.5C0.5 28.0345 28.0345 0.5 62 0.5V-0.5Z" fill="#333333"/>
<defs>
<clipPath id="clip0_83_823">
<path d="M0 62C0 27.7583 27.7583 0 62 0V0C96.2417 0 124 27.7583 124 62V62C124 96.2417 96.2417 124 62 124V124C27.7583 124 0 96.2417 0 62V62Z" fill="white"/>
</clipPath>
</defs>
</svg>
